v 0.000001 -1.552649 6.003200
v -6.300528 -0.000001 6.003200
v -0.000000 1.552649 6.003200
v 6.300528 0.000000 6.003200
v -0.000000 -0.000000 -12.957102
v 12.618104 0.000000 12.675399
v 0.000002 -3.109499 12.675399
v -0.000001 3.109499 12.675399
v -12.618104 -0.000001 12.675399
vt 0.918055 0.700000
vt 0.700000 0.933602
vt 0.481945 0.700000
vt 0.700000 0.466398
vt 0.300000 0.357982
vt 0.183357 0.357982
vt 0.300000 0.024754
vt 0.300000 0.475246
vt 0.066398 0.475246
vt 0.416643 0.357982
vt 0.533602 0.475246
vt 0.183357 0.642018
vt 0.300000 0.642018
vt 0.300000 0.975246
vt 0.066398 0.524754
vt 0.300000 0.524754
vt 0.416643 0.642018
vt 0.533602 0.524754
vn 0.000000 0.000000 1.000000
vn 0.000000 -0.000000 1.000000
vn 0.000000 -0.000000 1.000000
vn 0.000000 -0.000000 1.000000
vn -0.237593 -0.964136 -0.118283
vn -0.236433 -0.959428 -0.153614
vn -0.238520 -0.967898 -0.079261
vn -0.236433 0.959428 -0.153614
vn -0.237594 0.964136 -0.118283
vn -0.238521 0.967898 -0.079261
vn 0.237594 0.964136 -0.118283
vn 0.236433 0.959428 -0.153614
vn 0.238520 0.967898 -0.079261
vn 0.236433 -0.959428 -0.153614
vn 0.237594 -0.964136 -0.118283
vn 0.238521 -0.967898 -0.079261
vn 0.233359 -0.946954 -0.220956
vn 0.233359 -0.946954 -0.220956
vn 0.233359 0.946954 -0.220956
vn 0.233359 0.946954 -0.220956
vn -0.233359 0.946954 -0.220956
vn -0.233359 0.946954 -0.220956
vn -0.233359 -0.946954 -0.220956
vn -0.233359 -0.946954 -0.220956
f 6/2/1 8/3/2 7/1/3
f 7/1/3 8/3/2 9/4/4
f 1/5/5 2/6/6 5/7/7
f 2/12/8 3/13/9 5/14/10
f 3/13/11 4/17/12 5/14/13
f 4/10/14 1/5/15 5/7/16
f 1/5/15 4/10/14 7/8/17
f 7/8/17 4/10/14 6/11/18
f 3/13/11 8/16/19 4/17/12
f 4/17/12 8/16/19 6/18/20
f 3/13/9 2/12/8 8/16/21
f 8/16/21 2/12/8 9/15/22
f 1/5/5 7/8/23 2/6/6
f 2/6/6 7/8/23 9/9/24